<mxfile host="app.diagrams.net" modified="2024-06-18T14:19:11.032Z" agent="Mozilla/5.0 (Windows NT 10.0; Win64; x64) AppleWebKit/537.36 (KHTML, like Gecko) Chrome/112.0.0.0 YaBrowser/23.5.3.904 Yowser/2.5 Safari/537.36" etag="dYnvQ3dy0CHLc7huPMqr" scale="1" border="0" version="24.5.5" type="device">
  <diagram name="Страница — 1" id="bWHywCXaXaAxPZdSSDz7">
    <mxGraphModel dx="270" dy="129" grid="1" gridSize="10" guides="1" tooltips="1" connect="1" arrows="1" fold="1" page="1" pageScale="1" pageWidth="827" pageHeight="1169" math="0" shadow="0">
      <root>
        <mxCell id="0" />
        <mxCell id="1" parent="0" />
        <mxCell id="TZSjdZgy6kPpEdIloy_d-3" style="edgeStyle=none;curved=1;rounded=0;orthogonalLoop=1;jettySize=auto;html=1;exitX=0.5;exitY=1;exitDx=0;exitDy=0;entryX=0.5;entryY=0;entryDx=0;entryDy=0;fontSize=12;startSize=8;endSize=8;" parent="1" source="Tlh2Osy97JSbk6gR5O0x-1" target="TZSjdZgy6kPpEdIloy_d-2" edge="1">
          <mxGeometry relative="1" as="geometry">
            <mxPoint x="140" y="160" as="sourcePoint" />
          </mxGeometry>
        </mxCell>
        <mxCell id="02Jbn5WYScd2HMaN0pXU-1" style="edgeStyle=orthogonalEdgeStyle;rounded=0;orthogonalLoop=1;jettySize=auto;html=1;exitX=0.5;exitY=1;exitDx=0;exitDy=0;entryX=0.5;entryY=0;entryDx=0;entryDy=0;" parent="1" source="TZSjdZgy6kPpEdIloy_d-2" target="TZSjdZgy6kPpEdIloy_d-4" edge="1">
          <mxGeometry relative="1" as="geometry" />
        </mxCell>
        <mxCell id="TZSjdZgy6kPpEdIloy_d-2" value="Получить номер" style="rounded=0;whiteSpace=wrap;html=1;" parent="1" vertex="1">
          <mxGeometry x="40" y="200" width="160" height="60" as="geometry" />
        </mxCell>
        <mxCell id="02Jbn5WYScd2HMaN0pXU-3" style="edgeStyle=orthogonalEdgeStyle;rounded=0;orthogonalLoop=1;jettySize=auto;html=1;exitX=0.5;exitY=1;exitDx=0;exitDy=0;" parent="1" source="TZSjdZgy6kPpEdIloy_d-4" target="02Jbn5WYScd2HMaN0pXU-2" edge="1">
          <mxGeometry relative="1" as="geometry" />
        </mxCell>
        <mxCell id="TZSjdZgy6kPpEdIloy_d-4" value="Открыть сайт" style="rounded=0;whiteSpace=wrap;html=1;" parent="1" vertex="1">
          <mxGeometry x="40" y="300" width="160" height="60" as="geometry" />
        </mxCell>
        <mxCell id="TZSjdZgy6kPpEdIloy_d-9" style="edgeStyle=none;curved=1;rounded=0;orthogonalLoop=1;jettySize=auto;html=1;exitX=0.5;exitY=1;exitDx=0;exitDy=0;entryX=0.5;entryY=0;entryDx=0;entryDy=0;fontSize=12;startSize=8;endSize=8;" parent="1" source="TZSjdZgy6kPpEdIloy_d-6" target="TZSjdZgy6kPpEdIloy_d-8" edge="1">
          <mxGeometry relative="1" as="geometry" />
        </mxCell>
        <mxCell id="TZSjdZgy6kPpEdIloy_d-6" value="Найти поле ввода" style="rounded=0;whiteSpace=wrap;html=1;" parent="1" vertex="1">
          <mxGeometry x="240" y="70" width="160" height="60" as="geometry" />
        </mxCell>
        <mxCell id="02Jbn5WYScd2HMaN0pXU-12" style="edgeStyle=orthogonalEdgeStyle;rounded=0;orthogonalLoop=1;jettySize=auto;html=1;exitX=0.5;exitY=1;exitDx=0;exitDy=0;entryX=0.5;entryY=0;entryDx=0;entryDy=0;" parent="1" source="TZSjdZgy6kPpEdIloy_d-8" target="02Jbn5WYScd2HMaN0pXU-11" edge="1">
          <mxGeometry relative="1" as="geometry" />
        </mxCell>
        <mxCell id="TZSjdZgy6kPpEdIloy_d-8" value="Отправить запрос" style="rounded=0;whiteSpace=wrap;html=1;" parent="1" vertex="1">
          <mxGeometry x="240" y="160" width="160" height="60" as="geometry" />
        </mxCell>
        <mxCell id="TZSjdZgy6kPpEdIloy_d-13" style="edgeStyle=none;curved=1;rounded=0;orthogonalLoop=1;jettySize=auto;html=1;exitX=0.5;exitY=1;exitDx=0;exitDy=0;entryX=0.5;entryY=0;entryDx=0;entryDy=0;fontSize=12;startSize=8;endSize=8;" parent="1" source="TZSjdZgy6kPpEdIloy_d-10" target="TZSjdZgy6kPpEdIloy_d-12" edge="1">
          <mxGeometry relative="1" as="geometry" />
        </mxCell>
        <mxCell id="TZSjdZgy6kPpEdIloy_d-10" value="Найти данные о модели&amp;nbsp;" style="rounded=0;whiteSpace=wrap;html=1;" parent="1" vertex="1">
          <mxGeometry x="360" y="350" width="160" height="60" as="geometry" />
        </mxCell>
        <mxCell id="02Jbn5WYScd2HMaN0pXU-20" style="edgeStyle=orthogonalEdgeStyle;rounded=0;orthogonalLoop=1;jettySize=auto;html=1;exitX=0.5;exitY=1;exitDx=0;exitDy=0;entryX=0.5;entryY=0;entryDx=0;entryDy=0;" parent="1" source="TZSjdZgy6kPpEdIloy_d-12" target="02Jbn5WYScd2HMaN0pXU-19" edge="1">
          <mxGeometry relative="1" as="geometry" />
        </mxCell>
        <mxCell id="TZSjdZgy6kPpEdIloy_d-12" value="Получить данные о модели" style="rounded=0;whiteSpace=wrap;html=1;" parent="1" vertex="1">
          <mxGeometry x="360" y="440" width="160" height="60" as="geometry" />
        </mxCell>
        <mxCell id="02Jbn5WYScd2HMaN0pXU-8" style="edgeStyle=orthogonalEdgeStyle;rounded=0;orthogonalLoop=1;jettySize=auto;html=1;exitX=0.5;exitY=1;exitDx=0;exitDy=0;entryX=0.5;entryY=0;entryDx=0;entryDy=0;" parent="1" source="02Jbn5WYScd2HMaN0pXU-2" target="02Jbn5WYScd2HMaN0pXU-7" edge="1">
          <mxGeometry relative="1" as="geometry" />
        </mxCell>
        <mxCell id="02Jbn5WYScd2HMaN0pXU-10" style="edgeStyle=orthogonalEdgeStyle;rounded=0;orthogonalLoop=1;jettySize=auto;html=1;exitX=1;exitY=0.5;exitDx=0;exitDy=0;entryX=0.5;entryY=0;entryDx=0;entryDy=0;" parent="1" source="02Jbn5WYScd2HMaN0pXU-2" target="TZSjdZgy6kPpEdIloy_d-6" edge="1">
          <mxGeometry relative="1" as="geometry" />
        </mxCell>
        <mxCell id="02Jbn5WYScd2HMaN0pXU-2" value="Сайт открыт?" style="rhombus;whiteSpace=wrap;html=1;" parent="1" vertex="1">
          <mxGeometry x="40" y="400" width="160" height="80" as="geometry" />
        </mxCell>
        <mxCell id="02Jbn5WYScd2HMaN0pXU-6" value="нет" style="text;html=1;align=center;verticalAlign=middle;resizable=0;points=[];autosize=1;strokeColor=none;fillColor=none;" parent="1" vertex="1">
          <mxGeometry x="80" y="480" width="40" height="30" as="geometry" />
        </mxCell>
        <mxCell id="02Jbn5WYScd2HMaN0pXU-9" style="edgeStyle=orthogonalEdgeStyle;rounded=0;orthogonalLoop=1;jettySize=auto;html=1;exitX=0.5;exitY=1;exitDx=0;exitDy=0;entryX=0.5;entryY=0;entryDx=0;entryDy=0;" parent="1" source="02Jbn5WYScd2HMaN0pXU-7" target="Tlh2Osy97JSbk6gR5O0x-2" edge="1">
          <mxGeometry relative="1" as="geometry">
            <mxPoint x="140" y="710" as="targetPoint" />
          </mxGeometry>
        </mxCell>
        <mxCell id="02Jbn5WYScd2HMaN0pXU-7" value="Сообщение об ошибке" style="rounded=0;whiteSpace=wrap;html=1;" parent="1" vertex="1">
          <mxGeometry x="40" y="520" width="160" height="60" as="geometry" />
        </mxCell>
        <mxCell id="02Jbn5WYScd2HMaN0pXU-14" style="edgeStyle=orthogonalEdgeStyle;rounded=0;orthogonalLoop=1;jettySize=auto;html=1;exitX=0.5;exitY=1;exitDx=0;exitDy=0;" parent="1" source="02Jbn5WYScd2HMaN0pXU-11" edge="1">
          <mxGeometry relative="1" as="geometry">
            <mxPoint x="120" y="500" as="targetPoint" />
            <Array as="points">
              <mxPoint x="320" y="500" />
            </Array>
          </mxGeometry>
        </mxCell>
        <mxCell id="02Jbn5WYScd2HMaN0pXU-16" style="edgeStyle=orthogonalEdgeStyle;rounded=0;orthogonalLoop=1;jettySize=auto;html=1;exitX=1;exitY=0.5;exitDx=0;exitDy=0;entryX=0.5;entryY=0;entryDx=0;entryDy=0;" parent="1" source="02Jbn5WYScd2HMaN0pXU-11" target="TZSjdZgy6kPpEdIloy_d-10" edge="1">
          <mxGeometry relative="1" as="geometry" />
        </mxCell>
        <mxCell id="02Jbn5WYScd2HMaN0pXU-11" value="Запрос&amp;nbsp;&lt;div&gt;успешный?&lt;/div&gt;" style="rhombus;whiteSpace=wrap;html=1;" parent="1" vertex="1">
          <mxGeometry x="240" y="250" width="160" height="80" as="geometry" />
        </mxCell>
        <mxCell id="02Jbn5WYScd2HMaN0pXU-13" value="да" style="text;html=1;align=center;verticalAlign=middle;resizable=0;points=[];autosize=1;strokeColor=none;fillColor=none;" parent="1" vertex="1">
          <mxGeometry x="190" y="410" width="40" height="30" as="geometry" />
        </mxCell>
        <mxCell id="02Jbn5WYScd2HMaN0pXU-15" value="нет" style="text;html=1;align=center;verticalAlign=middle;resizable=0;points=[];autosize=1;strokeColor=none;fillColor=none;" parent="1" vertex="1">
          <mxGeometry x="280" y="330" width="40" height="30" as="geometry" />
        </mxCell>
        <mxCell id="02Jbn5WYScd2HMaN0pXU-17" value="да" style="text;html=1;align=center;verticalAlign=middle;resizable=0;points=[];autosize=1;strokeColor=none;fillColor=none;" parent="1" vertex="1">
          <mxGeometry x="390" y="290" width="40" height="30" as="geometry" />
        </mxCell>
        <mxCell id="02Jbn5WYScd2HMaN0pXU-21" style="edgeStyle=orthogonalEdgeStyle;rounded=0;orthogonalLoop=1;jettySize=auto;html=1;exitX=0.5;exitY=1;exitDx=0;exitDy=0;" parent="1" source="02Jbn5WYScd2HMaN0pXU-19" edge="1">
          <mxGeometry relative="1" as="geometry">
            <mxPoint x="120" y="650" as="targetPoint" />
            <Array as="points">
              <mxPoint x="440" y="650" />
            </Array>
          </mxGeometry>
        </mxCell>
        <mxCell id="02Jbn5WYScd2HMaN0pXU-19" value="Вернуть данные о модели" style="rounded=0;whiteSpace=wrap;html=1;" parent="1" vertex="1">
          <mxGeometry x="360" y="530" width="160" height="60" as="geometry" />
        </mxCell>
        <mxCell id="Tlh2Osy97JSbk6gR5O0x-1" value="НАЧАЛО" style="rounded=1;whiteSpace=wrap;html=1;" parent="1" vertex="1">
          <mxGeometry x="40" y="100" width="160" height="60" as="geometry" />
        </mxCell>
        <mxCell id="Tlh2Osy97JSbk6gR5O0x-2" value="КОНЕЦ" style="rounded=1;whiteSpace=wrap;html=1;" parent="1" vertex="1">
          <mxGeometry x="40" y="720" width="160" height="60" as="geometry" />
        </mxCell>
        <mxCell id="Tlh2Osy97JSbk6gR5O0x-5" style="edgeStyle=none;curved=1;rounded=0;orthogonalLoop=1;jettySize=auto;html=1;exitX=0.5;exitY=1;exitDx=0;exitDy=0;entryX=0.5;entryY=0;entryDx=0;entryDy=0;fontSize=12;startSize=8;endSize=8;" parent="1" target="Tlh2Osy97JSbk6gR5O0x-8" edge="1">
          <mxGeometry relative="1" as="geometry">
            <mxPoint x="930" y="150" as="sourcePoint" />
          </mxGeometry>
        </mxCell>
        <mxCell id="Tlh2Osy97JSbk6gR5O0x-7" style="edgeStyle=none;curved=1;rounded=0;orthogonalLoop=1;jettySize=auto;html=1;exitX=0.5;exitY=1;exitDx=0;exitDy=0;entryX=0.5;entryY=0;entryDx=0;entryDy=0;fontSize=12;startSize=8;endSize=8;" parent="1" source="Tlh2Osy97JSbk6gR5O0x-8" target="Tlh2Osy97JSbk6gR5O0x-10" edge="1">
          <mxGeometry relative="1" as="geometry" />
        </mxCell>
        <mxCell id="Tlh2Osy97JSbk6gR5O0x-8" value="Загрузка изображения" style="rounded=0;whiteSpace=wrap;html=1;" parent="1" vertex="1">
          <mxGeometry x="850" y="190" width="160" height="60" as="geometry" />
        </mxCell>
        <mxCell id="Tlh2Osy97JSbk6gR5O0x-9" style="edgeStyle=none;curved=1;rounded=0;orthogonalLoop=1;jettySize=auto;html=1;exitX=0.5;exitY=1;exitDx=0;exitDy=0;entryX=0.5;entryY=0;entryDx=0;entryDy=0;fontSize=12;startSize=8;endSize=8;" parent="1" source="Tlh2Osy97JSbk6gR5O0x-10" target="Tlh2Osy97JSbk6gR5O0x-12" edge="1">
          <mxGeometry relative="1" as="geometry" />
        </mxCell>
        <mxCell id="Tlh2Osy97JSbk6gR5O0x-10" value="Препроцессинг изображения" style="rounded=0;whiteSpace=wrap;html=1;" parent="1" vertex="1">
          <mxGeometry x="850" y="286" width="160" height="60" as="geometry" />
        </mxCell>
        <mxCell id="Tlh2Osy97JSbk6gR5O0x-11" style="edgeStyle=none;curved=1;rounded=0;orthogonalLoop=1;jettySize=auto;html=1;exitX=0.5;exitY=1;exitDx=0;exitDy=0;entryX=0.5;entryY=0;entryDx=0;entryDy=0;fontSize=12;startSize=8;endSize=8;" parent="1" source="Tlh2Osy97JSbk6gR5O0x-12" target="Tlh2Osy97JSbk6gR5O0x-14" edge="1">
          <mxGeometry relative="1" as="geometry" />
        </mxCell>
        <mxCell id="Tlh2Osy97JSbk6gR5O0x-12" value="Поиск области анкеты" style="rounded=0;whiteSpace=wrap;html=1;" parent="1" vertex="1">
          <mxGeometry x="850" y="378" width="160" height="60" as="geometry" />
        </mxCell>
        <mxCell id="Tlh2Osy97JSbk6gR5O0x-13" style="edgeStyle=orthogonalEdgeStyle;rounded=0;orthogonalLoop=1;jettySize=auto;html=1;exitX=0.5;exitY=1;exitDx=0;exitDy=0;entryX=0.5;entryY=0;entryDx=0;entryDy=0;fontSize=12;startSize=8;endSize=8;" parent="1" source="Tlh2Osy97JSbk6gR5O0x-14" target="Tlh2Osy97JSbk6gR5O0x-16" edge="1">
          <mxGeometry relative="1" as="geometry" />
        </mxCell>
        <mxCell id="Tlh2Osy97JSbk6gR5O0x-14" value="Выделение области анкеты" style="rounded=0;whiteSpace=wrap;html=1;" parent="1" vertex="1">
          <mxGeometry x="850" y="470" width="160" height="60" as="geometry" />
        </mxCell>
        <mxCell id="Tlh2Osy97JSbk6gR5O0x-15" style="edgeStyle=none;curved=1;rounded=0;orthogonalLoop=1;jettySize=auto;html=1;exitX=0.5;exitY=1;exitDx=0;exitDy=0;entryX=0.5;entryY=0;entryDx=0;entryDy=0;fontSize=12;startSize=8;endSize=8;" parent="1" source="Tlh2Osy97JSbk6gR5O0x-16" target="Tlh2Osy97JSbk6gR5O0x-18" edge="1">
          <mxGeometry relative="1" as="geometry" />
        </mxCell>
        <mxCell id="Tlh2Osy97JSbk6gR5O0x-16" value="Обработка анкеты" style="rounded=0;whiteSpace=wrap;html=1;" parent="1" vertex="1">
          <mxGeometry x="1050" y="60" width="160" height="60" as="geometry" />
        </mxCell>
        <mxCell id="Tlh2Osy97JSbk6gR5O0x-17" style="edgeStyle=none;curved=1;rounded=0;orthogonalLoop=1;jettySize=auto;html=1;exitX=0.5;exitY=1;exitDx=0;exitDy=0;entryX=0.5;entryY=0;entryDx=0;entryDy=0;fontSize=12;startSize=8;endSize=8;" parent="1" source="Tlh2Osy97JSbk6gR5O0x-18" target="Tlh2Osy97JSbk6gR5O0x-20" edge="1">
          <mxGeometry relative="1" as="geometry" />
        </mxCell>
        <mxCell id="Tlh2Osy97JSbk6gR5O0x-18" value="Анализ ответов" style="rounded=0;whiteSpace=wrap;html=1;" parent="1" vertex="1">
          <mxGeometry x="1050" y="160" width="160" height="60" as="geometry" />
        </mxCell>
        <mxCell id="Tlh2Osy97JSbk6gR5O0x-19" style="edgeStyle=none;curved=1;rounded=0;orthogonalLoop=1;jettySize=auto;html=1;exitX=0.5;exitY=1;exitDx=0;exitDy=0;entryX=0.5;entryY=0;entryDx=0;entryDy=0;fontSize=12;startSize=8;endSize=8;" parent="1" source="Tlh2Osy97JSbk6gR5O0x-20" target="Tlh2Osy97JSbk6gR5O0x-22" edge="1">
          <mxGeometry relative="1" as="geometry" />
        </mxCell>
        <mxCell id="Tlh2Osy97JSbk6gR5O0x-20" value="Извлечение возраста" style="rounded=0;whiteSpace=wrap;html=1;" parent="1" vertex="1">
          <mxGeometry x="1052" y="260" width="156" height="60" as="geometry" />
        </mxCell>
        <mxCell id="Tlh2Osy97JSbk6gR5O0x-21" style="edgeStyle=none;curved=1;rounded=0;orthogonalLoop=1;jettySize=auto;html=1;exitX=0.5;exitY=1;exitDx=0;exitDy=0;entryX=0.5;entryY=0;entryDx=0;entryDy=0;fontSize=12;startSize=8;endSize=8;" parent="1" source="Tlh2Osy97JSbk6gR5O0x-22" target="Tlh2Osy97JSbk6gR5O0x-25" edge="1">
          <mxGeometry relative="1" as="geometry">
            <mxPoint x="1114" y="470" as="targetPoint" />
          </mxGeometry>
        </mxCell>
        <mxCell id="Tlh2Osy97JSbk6gR5O0x-22" value="Запись результатов" style="rounded=0;whiteSpace=wrap;html=1;" parent="1" vertex="1">
          <mxGeometry x="1052" y="360" width="156" height="60" as="geometry" />
        </mxCell>
        <mxCell id="Tlh2Osy97JSbk6gR5O0x-24" value="НАЧАЛО" style="rounded=1;whiteSpace=wrap;html=1;" parent="1" vertex="1">
          <mxGeometry x="850" y="90" width="160" height="60" as="geometry" />
        </mxCell>
        <mxCell id="Tlh2Osy97JSbk6gR5O0x-25" value="КОНЕЦ" style="rounded=1;whiteSpace=wrap;html=1;" parent="1" vertex="1">
          <mxGeometry x="1050" y="470" width="160" height="60" as="geometry" />
        </mxCell>
        <mxCell id="Tlh2Osy97JSbk6gR5O0x-26" style="edgeStyle=none;curved=1;rounded=0;orthogonalLoop=1;jettySize=auto;html=1;exitX=0.5;exitY=1;exitDx=0;exitDy=0;entryX=0.5;entryY=0;entryDx=0;entryDy=0;fontSize=12;startSize=8;endSize=8;" parent="1" target="Tlh2Osy97JSbk6gR5O0x-29" edge="1">
          <mxGeometry relative="1" as="geometry">
            <mxPoint x="1570" y="212" as="sourcePoint" />
          </mxGeometry>
        </mxCell>
        <mxCell id="Tlh2Osy97JSbk6gR5O0x-28" style="edgeStyle=none;curved=1;rounded=0;orthogonalLoop=1;jettySize=auto;html=1;exitX=0.5;exitY=1;exitDx=0;exitDy=0;entryX=0.5;entryY=0;entryDx=0;entryDy=0;fontSize=12;startSize=8;endSize=8;" parent="1" source="Tlh2Osy97JSbk6gR5O0x-29" target="Tlh2Osy97JSbk6gR5O0x-31" edge="1">
          <mxGeometry relative="1" as="geometry" />
        </mxCell>
        <mxCell id="Tlh2Osy97JSbk6gR5O0x-29" value="Открыть окно для выбора файла" style="rounded=0;whiteSpace=wrap;html=1;" parent="1" vertex="1">
          <mxGeometry x="1510" y="252" width="120" height="60" as="geometry" />
        </mxCell>
        <mxCell id="Tlh2Osy97JSbk6gR5O0x-30" style="edgeStyle=none;curved=1;rounded=0;orthogonalLoop=1;jettySize=auto;html=1;exitX=0.5;exitY=1;exitDx=0;exitDy=0;fontSize=12;startSize=8;endSize=8;" parent="1" source="Tlh2Osy97JSbk6gR5O0x-31" target="Tlh2Osy97JSbk6gR5O0x-58" edge="1">
          <mxGeometry relative="1" as="geometry" />
        </mxCell>
        <mxCell id="Tlh2Osy97JSbk6gR5O0x-31" value="Получить файл и его путь" style="rounded=0;whiteSpace=wrap;html=1;" parent="1" vertex="1">
          <mxGeometry x="1510" y="352" width="120" height="60" as="geometry" />
        </mxCell>
        <mxCell id="Tlh2Osy97JSbk6gR5O0x-32" style="edgeStyle=none;curved=1;rounded=0;orthogonalLoop=1;jettySize=auto;html=1;exitX=0.5;exitY=1;exitDx=0;exitDy=0;entryX=0.5;entryY=0;entryDx=0;entryDy=0;fontSize=12;startSize=8;endSize=8;" parent="1" source="Tlh2Osy97JSbk6gR5O0x-33" edge="1">
          <mxGeometry relative="1" as="geometry">
            <mxPoint x="1570" y="685" as="targetPoint" />
          </mxGeometry>
        </mxCell>
        <mxCell id="Tlh2Osy97JSbk6gR5O0x-33" value="Извлечь имя файла" style="rounded=0;whiteSpace=wrap;html=1;" parent="1" vertex="1">
          <mxGeometry x="1510" y="562" width="120" height="60" as="geometry" />
        </mxCell>
        <mxCell id="Tlh2Osy97JSbk6gR5O0x-35" style="edgeStyle=none;curved=1;rounded=0;orthogonalLoop=1;jettySize=auto;html=1;exitX=0.5;exitY=1;exitDx=0;exitDy=0;entryX=0.5;entryY=0;entryDx=0;entryDy=0;fontSize=12;startSize=8;endSize=8;" parent="1" target="Tlh2Osy97JSbk6gR5O0x-38" edge="1">
          <mxGeometry relative="1" as="geometry">
            <mxPoint x="3031" y="210" as="sourcePoint" />
          </mxGeometry>
        </mxCell>
        <mxCell id="Tlh2Osy97JSbk6gR5O0x-37" style="edgeStyle=none;curved=1;rounded=0;orthogonalLoop=1;jettySize=auto;html=1;exitX=0.5;exitY=1;exitDx=0;exitDy=0;entryX=0.5;entryY=0;entryDx=0;entryDy=0;fontSize=12;startSize=8;endSize=8;" parent="1" source="Tlh2Osy97JSbk6gR5O0x-38" edge="1">
          <mxGeometry relative="1" as="geometry">
            <mxPoint x="3031" y="350" as="targetPoint" />
          </mxGeometry>
        </mxCell>
        <mxCell id="Tlh2Osy97JSbk6gR5O0x-38" value="Получить имя файла" style="rounded=0;whiteSpace=wrap;html=1;" parent="1" vertex="1">
          <mxGeometry x="2971" y="250" width="120" height="60" as="geometry" />
        </mxCell>
        <mxCell id="Tlh2Osy97JSbk6gR5O0x-39" style="edgeStyle=none;curved=1;rounded=0;orthogonalLoop=1;jettySize=auto;html=1;exitX=0.5;exitY=1;exitDx=0;exitDy=0;entryX=0.5;entryY=0;entryDx=0;entryDy=0;fontSize=12;startSize=8;endSize=8;" parent="1" edge="1">
          <mxGeometry relative="1" as="geometry">
            <mxPoint x="2516" y="252" as="targetPoint" />
            <mxPoint x="2516" y="212" as="sourcePoint" />
          </mxGeometry>
        </mxCell>
        <mxCell id="Tlh2Osy97JSbk6gR5O0x-42" style="edgeStyle=none;curved=1;rounded=0;orthogonalLoop=1;jettySize=auto;html=1;exitX=0.5;exitY=1;exitDx=0;exitDy=0;entryX=0.5;entryY=0;entryDx=0;entryDy=0;fontSize=12;startSize=8;endSize=8;" parent="1" edge="1">
          <mxGeometry relative="1" as="geometry">
            <mxPoint x="2516" y="612" as="sourcePoint" />
            <mxPoint x="2516" y="688" as="targetPoint" />
          </mxGeometry>
        </mxCell>
        <mxCell id="Tlh2Osy97JSbk6gR5O0x-43" style="edgeStyle=none;curved=1;rounded=0;orthogonalLoop=1;jettySize=auto;html=1;exitX=0.5;exitY=1;exitDx=0;exitDy=0;entryX=0.5;entryY=0;entryDx=0;entryDy=0;fontSize=12;startSize=8;endSize=8;" parent="1" target="Tlh2Osy97JSbk6gR5O0x-46" edge="1">
          <mxGeometry relative="1" as="geometry">
            <mxPoint x="2000" y="180" as="sourcePoint" />
          </mxGeometry>
        </mxCell>
        <mxCell id="Tlh2Osy97JSbk6gR5O0x-45" style="edgeStyle=none;curved=1;rounded=0;orthogonalLoop=1;jettySize=auto;html=1;exitX=0.5;exitY=1;exitDx=0;exitDy=0;entryX=0.5;entryY=0;entryDx=0;entryDy=0;fontSize=12;startSize=8;endSize=8;" parent="1" source="Tlh2Osy97JSbk6gR5O0x-46" target="Tlh2Osy97JSbk6gR5O0x-48" edge="1">
          <mxGeometry relative="1" as="geometry" />
        </mxCell>
        <mxCell id="Tlh2Osy97JSbk6gR5O0x-46" value="Прочитать изображение" style="rounded=0;whiteSpace=wrap;html=1;" parent="1" vertex="1">
          <mxGeometry x="1940" y="220" width="120" height="60" as="geometry" />
        </mxCell>
        <mxCell id="Tlh2Osy97JSbk6gR5O0x-47" style="edgeStyle=none;curved=1;rounded=0;orthogonalLoop=1;jettySize=auto;html=1;exitX=0.5;exitY=1;exitDx=0;exitDy=0;entryX=0.5;entryY=0;entryDx=0;entryDy=0;fontSize=12;startSize=8;endSize=8;" parent="1" source="Tlh2Osy97JSbk6gR5O0x-48" target="Tlh2Osy97JSbk6gR5O0x-50" edge="1">
          <mxGeometry relative="1" as="geometry" />
        </mxCell>
        <mxCell id="Tlh2Osy97JSbk6gR5O0x-48" value="Преобразовать изображение" style="rounded=0;whiteSpace=wrap;html=1;" parent="1" vertex="1">
          <mxGeometry x="1940" y="320" width="120" height="60" as="geometry" />
        </mxCell>
        <mxCell id="Tlh2Osy97JSbk6gR5O0x-49" style="edgeStyle=none;curved=1;rounded=0;orthogonalLoop=1;jettySize=auto;html=1;exitX=0.5;exitY=1;exitDx=0;exitDy=0;entryX=0.5;entryY=0;entryDx=0;entryDy=0;fontSize=12;startSize=8;endSize=8;" parent="1" source="Tlh2Osy97JSbk6gR5O0x-50" target="Tlh2Osy97JSbk6gR5O0x-98" edge="1">
          <mxGeometry relative="1" as="geometry" />
        </mxCell>
        <mxCell id="Tlh2Osy97JSbk6gR5O0x-50" value="Загрузить модели для распознавания" style="rounded=0;whiteSpace=wrap;html=1;" parent="1" vertex="1">
          <mxGeometry x="1940" y="420" width="120" height="60" as="geometry" />
        </mxCell>
        <mxCell id="Tlh2Osy97JSbk6gR5O0x-51" style="edgeStyle=none;curved=1;rounded=0;orthogonalLoop=1;jettySize=auto;html=1;exitX=0.5;exitY=1;exitDx=0;exitDy=0;fontSize=12;startSize=8;endSize=8;entryX=0.5;entryY=0;entryDx=0;entryDy=0;" parent="1" source="Tlh2Osy97JSbk6gR5O0x-52" target="Tlh2Osy97JSbk6gR5O0x-102" edge="1">
          <mxGeometry relative="1" as="geometry">
            <mxPoint x="1999.5789473684213" y="739.5574107923007" as="targetPoint" />
          </mxGeometry>
        </mxCell>
        <mxCell id="Tlh2Osy97JSbk6gR5O0x-52" value="Выполнить распознавание" style="rounded=0;whiteSpace=wrap;html=1;" parent="1" vertex="1">
          <mxGeometry x="1940" y="637" width="120" height="60" as="geometry" />
        </mxCell>
        <mxCell id="Tlh2Osy97JSbk6gR5O0x-53" style="edgeStyle=none;curved=1;rounded=0;orthogonalLoop=1;jettySize=auto;html=1;exitX=0.5;exitY=1;exitDx=0;exitDy=0;entryX=0.5;entryY=0;entryDx=0;entryDy=0;fontSize=12;startSize=8;endSize=8;" parent="1" source="Tlh2Osy97JSbk6gR5O0x-54" edge="1">
          <mxGeometry relative="1" as="geometry">
            <mxPoint x="2000" y="955" as="targetPoint" />
          </mxGeometry>
        </mxCell>
        <mxCell id="Tlh2Osy97JSbk6gR5O0x-54" value="Вернуть распознанный текст" style="rounded=0;whiteSpace=wrap;html=1;" parent="1" vertex="1">
          <mxGeometry x="1940" y="844" width="120" height="60" as="geometry" />
        </mxCell>
        <mxCell id="Tlh2Osy97JSbk6gR5O0x-56" style="edgeStyle=none;curved=1;rounded=0;orthogonalLoop=1;jettySize=auto;html=1;exitX=0.5;exitY=1;exitDx=0;exitDy=0;entryX=0.5;entryY=0;entryDx=0;entryDy=0;fontSize=12;startSize=8;endSize=8;" parent="1" source="Tlh2Osy97JSbk6gR5O0x-58" target="Tlh2Osy97JSbk6gR5O0x-33" edge="1">
          <mxGeometry relative="1" as="geometry" />
        </mxCell>
        <mxCell id="Tlh2Osy97JSbk6gR5O0x-57" style="edgeStyle=orthogonalEdgeStyle;rounded=0;orthogonalLoop=1;jettySize=auto;html=1;exitX=1;exitY=0.5;exitDx=0;exitDy=0;entryX=0.5;entryY=0;entryDx=0;entryDy=0;fontSize=12;startSize=8;endSize=8;" parent="1" source="Tlh2Osy97JSbk6gR5O0x-58" target="Tlh2Osy97JSbk6gR5O0x-61" edge="1">
          <mxGeometry relative="1" as="geometry" />
        </mxCell>
        <mxCell id="Tlh2Osy97JSbk6gR5O0x-58" value="Файл&amp;nbsp;&lt;div&gt;существует?&lt;/div&gt;" style="rhombus;whiteSpace=wrap;html=1;" parent="1" vertex="1">
          <mxGeometry x="1510" y="443" width="120" height="70" as="geometry" />
        </mxCell>
        <mxCell id="Tlh2Osy97JSbk6gR5O0x-59" value="да" style="text;html=1;align=center;verticalAlign=middle;resizable=0;points=[];autosize=1;strokeColor=none;fillColor=none;fontSize=16;" parent="1" vertex="1">
          <mxGeometry x="1572" y="518" width="36" height="31" as="geometry" />
        </mxCell>
        <mxCell id="Tlh2Osy97JSbk6gR5O0x-60" style="edgeStyle=orthogonalEdgeStyle;rounded=0;orthogonalLoop=1;jettySize=auto;html=1;exitX=0.5;exitY=1;exitDx=0;exitDy=0;fontSize=12;startSize=8;endSize=8;" parent="1" source="Tlh2Osy97JSbk6gR5O0x-61" edge="1">
          <mxGeometry relative="1" as="geometry">
            <mxPoint x="1570" y="660" as="targetPoint" />
            <Array as="points">
              <mxPoint x="1737" y="660" />
            </Array>
          </mxGeometry>
        </mxCell>
        <mxCell id="Tlh2Osy97JSbk6gR5O0x-61" value="Сообщение об ошибке" style="rounded=0;whiteSpace=wrap;html=1;" parent="1" vertex="1">
          <mxGeometry x="1677" y="562" width="120" height="60" as="geometry" />
        </mxCell>
        <mxCell id="Tlh2Osy97JSbk6gR5O0x-62" value="нет" style="text;html=1;align=center;verticalAlign=middle;resizable=0;points=[];autosize=1;strokeColor=none;fillColor=none;fontSize=16;" parent="1" vertex="1">
          <mxGeometry x="1626" y="441" width="43" height="31" as="geometry" />
        </mxCell>
        <mxCell id="Tlh2Osy97JSbk6gR5O0x-63" style="edgeStyle=none;curved=1;rounded=0;orthogonalLoop=1;jettySize=auto;html=1;exitX=0.5;exitY=1;exitDx=0;exitDy=0;entryX=0.5;entryY=0;entryDx=0;entryDy=0;fontSize=12;startSize=8;endSize=8;" parent="1" source="Tlh2Osy97JSbk6gR5O0x-65" target="Tlh2Osy97JSbk6gR5O0x-67" edge="1">
          <mxGeometry relative="1" as="geometry" />
        </mxCell>
        <mxCell id="Tlh2Osy97JSbk6gR5O0x-64" style="edgeStyle=orthogonalEdgeStyle;rounded=0;orthogonalLoop=1;jettySize=auto;html=1;exitX=0;exitY=0.5;exitDx=0;exitDy=0;entryX=0.5;entryY=0;entryDx=0;entryDy=0;fontSize=12;startSize=8;endSize=8;" parent="1" source="Tlh2Osy97JSbk6gR5O0x-65" target="Tlh2Osy97JSbk6gR5O0x-70" edge="1">
          <mxGeometry relative="1" as="geometry" />
        </mxCell>
        <mxCell id="Tlh2Osy97JSbk6gR5O0x-65" value="Файл&amp;nbsp;&lt;div&gt;существует?&lt;/div&gt;" style="rhombus;whiteSpace=wrap;html=1;" parent="1" vertex="1">
          <mxGeometry x="2971" y="352" width="120" height="70" as="geometry" />
        </mxCell>
        <mxCell id="Tlh2Osy97JSbk6gR5O0x-66" style="edgeStyle=none;curved=1;rounded=0;orthogonalLoop=1;jettySize=auto;html=1;exitX=0.5;exitY=1;exitDx=0;exitDy=0;fontSize=12;startSize=8;endSize=8;" parent="1" source="Tlh2Osy97JSbk6gR5O0x-67" target="Tlh2Osy97JSbk6gR5O0x-73" edge="1">
          <mxGeometry relative="1" as="geometry" />
        </mxCell>
        <mxCell id="Tlh2Osy97JSbk6gR5O0x-67" value="определить частоту кадров для сохранения" style="rounded=0;whiteSpace=wrap;html=1;" parent="1" vertex="1">
          <mxGeometry x="2971" y="462" width="120" height="60" as="geometry" />
        </mxCell>
        <mxCell id="Tlh2Osy97JSbk6gR5O0x-68" value="да" style="text;html=1;align=center;verticalAlign=middle;resizable=0;points=[];autosize=1;strokeColor=none;fillColor=none;fontSize=16;" parent="1" vertex="1">
          <mxGeometry x="3027.5" y="417.5" width="36" height="31" as="geometry" />
        </mxCell>
        <mxCell id="Tlh2Osy97JSbk6gR5O0x-69" style="edgeStyle=orthogonalEdgeStyle;rounded=0;orthogonalLoop=1;jettySize=auto;html=1;exitX=0.5;exitY=1;exitDx=0;exitDy=0;fontSize=12;startSize=8;endSize=8;" parent="1" source="Tlh2Osy97JSbk6gR5O0x-70" edge="1">
          <mxGeometry relative="1" as="geometry">
            <mxPoint x="3031" y="806" as="targetPoint" />
            <Array as="points">
              <mxPoint x="2870" y="806" />
            </Array>
          </mxGeometry>
        </mxCell>
        <mxCell id="Tlh2Osy97JSbk6gR5O0x-70" value="Сообщение об ошибке" style="rounded=0;whiteSpace=wrap;html=1;" parent="1" vertex="1">
          <mxGeometry x="2810" y="462" width="120" height="60" as="geometry" />
        </mxCell>
        <mxCell id="Tlh2Osy97JSbk6gR5O0x-71" value="нет" style="text;html=1;align=center;verticalAlign=middle;resizable=0;points=[];autosize=1;strokeColor=none;fillColor=none;fontSize=16;" parent="1" vertex="1">
          <mxGeometry x="2920" y="360" width="43" height="31" as="geometry" />
        </mxCell>
        <mxCell id="Tlh2Osy97JSbk6gR5O0x-72" style="edgeStyle=none;curved=1;rounded=0;orthogonalLoop=1;jettySize=auto;html=1;exitX=0.5;exitY=1;exitDx=0;exitDy=0;entryX=0.5;entryY=0;entryDx=0;entryDy=0;fontSize=12;startSize=8;endSize=8;" parent="1" source="Tlh2Osy97JSbk6gR5O0x-73" target="Tlh2Osy97JSbk6gR5O0x-76" edge="1">
          <mxGeometry relative="1" as="geometry" />
        </mxCell>
        <mxCell id="Tlh2Osy97JSbk6gR5O0x-73" value="поделить видео с заданной частотой кадров" style="rounded=0;whiteSpace=wrap;html=1;" parent="1" vertex="1">
          <mxGeometry x="2971" y="559" width="120" height="60" as="geometry" />
        </mxCell>
        <mxCell id="Tlh2Osy97JSbk6gR5O0x-74" style="edgeStyle=orthogonalEdgeStyle;rounded=0;orthogonalLoop=1;jettySize=auto;html=1;exitX=1;exitY=0.5;exitDx=0;exitDy=0;entryX=0.5;entryY=0;entryDx=0;entryDy=0;fontSize=12;startSize=8;endSize=8;" parent="1" source="Tlh2Osy97JSbk6gR5O0x-76" target="Tlh2Osy97JSbk6gR5O0x-78" edge="1">
          <mxGeometry relative="1" as="geometry" />
        </mxCell>
        <mxCell id="Tlh2Osy97JSbk6gR5O0x-75" style="edgeStyle=none;curved=1;rounded=0;orthogonalLoop=1;jettySize=auto;html=1;exitX=0.5;exitY=1;exitDx=0;exitDy=0;entryX=0.5;entryY=0;entryDx=0;entryDy=0;fontSize=12;startSize=8;endSize=8;" parent="1" source="Tlh2Osy97JSbk6gR5O0x-76" target="Tlh2Osy97JSbk6gR5O0x-81" edge="1">
          <mxGeometry relative="1" as="geometry" />
        </mxCell>
        <mxCell id="Tlh2Osy97JSbk6gR5O0x-76" value="Папка&amp;nbsp;&lt;div&gt;создана?&lt;/div&gt;" style="rhombus;whiteSpace=wrap;html=1;" parent="1" vertex="1">
          <mxGeometry x="2971" y="652" width="120" height="70" as="geometry" />
        </mxCell>
        <mxCell id="Tlh2Osy97JSbk6gR5O0x-77" style="edgeStyle=orthogonalEdgeStyle;rounded=0;orthogonalLoop=1;jettySize=auto;html=1;exitX=0.5;exitY=1;exitDx=0;exitDy=0;fontSize=12;startSize=8;endSize=8;" parent="1" source="Tlh2Osy97JSbk6gR5O0x-78" edge="1">
          <mxGeometry relative="1" as="geometry">
            <mxPoint x="3030" y="842" as="targetPoint" />
            <Array as="points">
              <mxPoint x="3207" y="842" />
            </Array>
          </mxGeometry>
        </mxCell>
        <mxCell id="Tlh2Osy97JSbk6gR5O0x-78" value="создать папку с именем файла" style="rounded=0;whiteSpace=wrap;html=1;" parent="1" vertex="1">
          <mxGeometry x="3147" y="762" width="120" height="60" as="geometry" />
        </mxCell>
        <mxCell id="Tlh2Osy97JSbk6gR5O0x-79" value="нет" style="text;html=1;align=center;verticalAlign=middle;resizable=0;points=[];autosize=1;strokeColor=none;fillColor=none;fontSize=16;" parent="1" vertex="1">
          <mxGeometry x="3087" y="654" width="43" height="31" as="geometry" />
        </mxCell>
        <mxCell id="Tlh2Osy97JSbk6gR5O0x-80" style="edgeStyle=none;curved=1;rounded=0;orthogonalLoop=1;jettySize=auto;html=1;exitX=0.5;exitY=1;exitDx=0;exitDy=0;entryX=0.5;entryY=0;entryDx=0;entryDy=0;fontSize=12;startSize=8;endSize=8;" parent="1" source="Tlh2Osy97JSbk6gR5O0x-81" edge="1">
          <mxGeometry relative="1" as="geometry">
            <mxPoint x="3031" y="982" as="targetPoint" />
          </mxGeometry>
        </mxCell>
        <mxCell id="Tlh2Osy97JSbk6gR5O0x-81" value="сохранить кадры в папку" style="rounded=0;whiteSpace=wrap;html=1;" parent="1" vertex="1">
          <mxGeometry x="2971" y="879" width="120" height="60" as="geometry" />
        </mxCell>
        <mxCell id="Tlh2Osy97JSbk6gR5O0x-82" value="да" style="text;html=1;align=center;verticalAlign=middle;resizable=0;points=[];autosize=1;strokeColor=none;fillColor=none;fontSize=16;" parent="1" vertex="1">
          <mxGeometry x="3033" y="727" width="36" height="31" as="geometry" />
        </mxCell>
        <mxCell id="Tlh2Osy97JSbk6gR5O0x-84" style="edgeStyle=none;curved=1;rounded=0;orthogonalLoop=1;jettySize=auto;html=1;exitX=0.5;exitY=1;exitDx=0;exitDy=0;entryX=0.5;entryY=0;entryDx=0;entryDy=0;fontSize=12;startSize=8;endSize=8;" parent="1" source="Tlh2Osy97JSbk6gR5O0x-85" target="Tlh2Osy97JSbk6gR5O0x-87" edge="1">
          <mxGeometry relative="1" as="geometry" />
        </mxCell>
        <mxCell id="Tlh2Osy97JSbk6gR5O0x-85" value="Открыть окно для выбора файла" style="rounded=0;whiteSpace=wrap;html=1;" parent="1" vertex="1">
          <mxGeometry x="2456" y="252" width="120" height="60" as="geometry" />
        </mxCell>
        <mxCell id="Tlh2Osy97JSbk6gR5O0x-86" style="edgeStyle=none;curved=1;rounded=0;orthogonalLoop=1;jettySize=auto;html=1;exitX=0.5;exitY=1;exitDx=0;exitDy=0;fontSize=12;startSize=8;endSize=8;" parent="1" source="Tlh2Osy97JSbk6gR5O0x-87" target="Tlh2Osy97JSbk6gR5O0x-91" edge="1">
          <mxGeometry relative="1" as="geometry" />
        </mxCell>
        <mxCell id="Tlh2Osy97JSbk6gR5O0x-87" value="Получить файл и его путь" style="rounded=0;whiteSpace=wrap;html=1;" parent="1" vertex="1">
          <mxGeometry x="2456" y="352" width="120" height="60" as="geometry" />
        </mxCell>
        <mxCell id="Tlh2Osy97JSbk6gR5O0x-88" value="Извлечь имя файла" style="rounded=0;whiteSpace=wrap;html=1;" parent="1" vertex="1">
          <mxGeometry x="2456" y="562" width="120" height="60" as="geometry" />
        </mxCell>
        <mxCell id="Tlh2Osy97JSbk6gR5O0x-89" style="edgeStyle=none;curved=1;rounded=0;orthogonalLoop=1;jettySize=auto;html=1;exitX=0.5;exitY=1;exitDx=0;exitDy=0;entryX=0.5;entryY=0;entryDx=0;entryDy=0;fontSize=12;startSize=8;endSize=8;" parent="1" source="Tlh2Osy97JSbk6gR5O0x-91" target="Tlh2Osy97JSbk6gR5O0x-88" edge="1">
          <mxGeometry relative="1" as="geometry" />
        </mxCell>
        <mxCell id="Tlh2Osy97JSbk6gR5O0x-90" style="edgeStyle=orthogonalEdgeStyle;rounded=0;orthogonalLoop=1;jettySize=auto;html=1;exitX=1;exitY=0.5;exitDx=0;exitDy=0;entryX=0.5;entryY=0;entryDx=0;entryDy=0;fontSize=12;startSize=8;endSize=8;" parent="1" source="Tlh2Osy97JSbk6gR5O0x-91" target="Tlh2Osy97JSbk6gR5O0x-94" edge="1">
          <mxGeometry relative="1" as="geometry" />
        </mxCell>
        <mxCell id="Tlh2Osy97JSbk6gR5O0x-91" value="Файл&amp;nbsp;&lt;div&gt;существует?&lt;/div&gt;" style="rhombus;whiteSpace=wrap;html=1;" parent="1" vertex="1">
          <mxGeometry x="2456" y="443" width="120" height="70" as="geometry" />
        </mxCell>
        <mxCell id="Tlh2Osy97JSbk6gR5O0x-92" value="да" style="text;html=1;align=center;verticalAlign=middle;resizable=0;points=[];autosize=1;strokeColor=none;fillColor=none;fontSize=16;" parent="1" vertex="1">
          <mxGeometry x="2518" y="518" width="36" height="31" as="geometry" />
        </mxCell>
        <mxCell id="Tlh2Osy97JSbk6gR5O0x-93" style="edgeStyle=orthogonalEdgeStyle;rounded=0;orthogonalLoop=1;jettySize=auto;html=1;exitX=0.5;exitY=1;exitDx=0;exitDy=0;fontSize=12;startSize=8;endSize=8;" parent="1" source="Tlh2Osy97JSbk6gR5O0x-94" edge="1">
          <mxGeometry relative="1" as="geometry">
            <mxPoint x="2516" y="660" as="targetPoint" />
            <Array as="points">
              <mxPoint x="2683" y="660" />
            </Array>
          </mxGeometry>
        </mxCell>
        <mxCell id="Tlh2Osy97JSbk6gR5O0x-94" value="Сообщение об ошибке" style="rounded=0;whiteSpace=wrap;html=1;" parent="1" vertex="1">
          <mxGeometry x="2623" y="562" width="120" height="60" as="geometry" />
        </mxCell>
        <mxCell id="Tlh2Osy97JSbk6gR5O0x-95" value="нет" style="text;html=1;align=center;verticalAlign=middle;resizable=0;points=[];autosize=1;strokeColor=none;fillColor=none;fontSize=16;" parent="1" vertex="1">
          <mxGeometry x="2572" y="441" width="43" height="31" as="geometry" />
        </mxCell>
        <mxCell id="Tlh2Osy97JSbk6gR5O0x-96" style="edgeStyle=none;curved=1;rounded=0;orthogonalLoop=1;jettySize=auto;html=1;exitX=0.5;exitY=1;exitDx=0;exitDy=0;entryX=0.5;entryY=0;entryDx=0;entryDy=0;fontSize=12;startSize=8;endSize=8;" parent="1" source="Tlh2Osy97JSbk6gR5O0x-98" target="Tlh2Osy97JSbk6gR5O0x-52" edge="1">
          <mxGeometry relative="1" as="geometry" />
        </mxCell>
        <mxCell id="Tlh2Osy97JSbk6gR5O0x-97" style="edgeStyle=orthogonalEdgeStyle;rounded=0;orthogonalLoop=1;jettySize=auto;html=1;exitX=1;exitY=0.5;exitDx=0;exitDy=0;fontSize=12;startSize=8;endSize=8;" parent="1" source="Tlh2Osy97JSbk6gR5O0x-98" edge="1">
          <mxGeometry relative="1" as="geometry">
            <mxPoint x="2174.912288120815" y="774.5745489937922" as="targetPoint" />
            <mxPoint x="2060" y="590" as="sourcePoint" />
          </mxGeometry>
        </mxCell>
        <mxCell id="Tlh2Osy97JSbk6gR5O0x-98" value="Модели&amp;nbsp;&lt;div&gt;загружены?&lt;/div&gt;" style="rhombus;whiteSpace=wrap;html=1;" parent="1" vertex="1">
          <mxGeometry x="1940" y="526" width="120" height="70" as="geometry" />
        </mxCell>
        <mxCell id="Tlh2Osy97JSbk6gR5O0x-99" value="да" style="text;html=1;align=center;verticalAlign=middle;resizable=0;points=[];autosize=1;strokeColor=none;fillColor=none;fontSize=16;" parent="1" vertex="1">
          <mxGeometry x="2001.5" y="595.5" width="36" height="31" as="geometry" />
        </mxCell>
        <mxCell id="Tlh2Osy97JSbk6gR5O0x-100" style="edgeStyle=none;curved=1;rounded=0;orthogonalLoop=1;jettySize=auto;html=1;exitX=0.5;exitY=1;exitDx=0;exitDy=0;fontSize=12;startSize=8;endSize=8;" parent="1" source="Tlh2Osy97JSbk6gR5O0x-102" target="Tlh2Osy97JSbk6gR5O0x-54" edge="1">
          <mxGeometry relative="1" as="geometry" />
        </mxCell>
        <mxCell id="Tlh2Osy97JSbk6gR5O0x-101" style="edgeStyle=orthogonalEdgeStyle;rounded=0;orthogonalLoop=1;jettySize=auto;html=1;exitX=1;exitY=0.5;exitDx=0;exitDy=0;entryX=0.5;entryY=0;entryDx=0;entryDy=0;fontSize=12;startSize=8;endSize=8;" parent="1" source="Tlh2Osy97JSbk6gR5O0x-102" target="Tlh2Osy97JSbk6gR5O0x-105" edge="1">
          <mxGeometry relative="1" as="geometry" />
        </mxCell>
        <mxCell id="Tlh2Osy97JSbk6gR5O0x-102" value="Формат верный?" style="rhombus;whiteSpace=wrap;html=1;" parent="1" vertex="1">
          <mxGeometry x="1940" y="738" width="120" height="70" as="geometry" />
        </mxCell>
        <mxCell id="Tlh2Osy97JSbk6gR5O0x-103" value="да" style="text;html=1;align=center;verticalAlign=middle;resizable=0;points=[];autosize=1;strokeColor=none;fillColor=none;fontSize=16;" parent="1" vertex="1">
          <mxGeometry x="2003.5" y="805.5" width="36" height="31" as="geometry" />
        </mxCell>
        <mxCell id="Tlh2Osy97JSbk6gR5O0x-104" style="edgeStyle=orthogonalEdgeStyle;rounded=0;orthogonalLoop=1;jettySize=auto;html=1;exitX=0.5;exitY=1;exitDx=0;exitDy=0;fontSize=12;startSize=8;endSize=8;" parent="1" source="Tlh2Osy97JSbk6gR5O0x-105" edge="1">
          <mxGeometry relative="1" as="geometry">
            <mxPoint x="1999.5549138387046" y="925.2822157541914" as="targetPoint" />
            <Array as="points">
              <mxPoint x="2190" y="925" />
              <mxPoint x="2000" y="925" />
            </Array>
          </mxGeometry>
        </mxCell>
        <mxCell id="Tlh2Osy97JSbk6gR5O0x-105" value="Сообщение об ошибке" style="rounded=0;whiteSpace=wrap;html=1;" parent="1" vertex="1">
          <mxGeometry x="2130" y="844" width="120" height="60" as="geometry" />
        </mxCell>
        <mxCell id="Tlh2Osy97JSbk6gR5O0x-106" value="нет" style="text;html=1;align=center;verticalAlign=middle;resizable=0;points=[];autosize=1;strokeColor=none;fillColor=none;fontSize=16;" parent="1" vertex="1">
          <mxGeometry x="2054.5" y="740.5" width="43" height="31" as="geometry" />
        </mxCell>
        <mxCell id="Tlh2Osy97JSbk6gR5O0x-107" value="нет" style="text;html=1;align=center;verticalAlign=middle;resizable=0;points=[];autosize=1;strokeColor=none;fillColor=none;fontSize=16;" parent="1" vertex="1">
          <mxGeometry x="2067" y="535" width="43" height="31" as="geometry" />
        </mxCell>
        <mxCell id="Tlh2Osy97JSbk6gR5O0x-109" value="ЗАГРУЗИТЬ ВИДЕО&lt;div&gt;НАЧАЛО&lt;/div&gt;" style="rounded=1;whiteSpace=wrap;html=1;" parent="1" vertex="1">
          <mxGeometry x="1510" y="150" width="120" height="60" as="geometry" />
        </mxCell>
        <mxCell id="Tlh2Osy97JSbk6gR5O0x-110" value="ЗАГРУЗИТЬ ВИДЕО&lt;div&gt;КОНЕЦ&lt;/div&gt;" style="rounded=1;whiteSpace=wrap;html=1;" parent="1" vertex="1">
          <mxGeometry x="1510" y="685" width="120" height="60" as="geometry" />
        </mxCell>
        <mxCell id="Tlh2Osy97JSbk6gR5O0x-111" value="&lt;div&gt;РАСПОЗНАТЬ НОМЕР&lt;br&gt;&lt;/div&gt;&lt;div&gt;НАЧАЛО&lt;br&gt;&lt;/div&gt;" style="rounded=1;whiteSpace=wrap;html=1;" parent="1" vertex="1">
          <mxGeometry x="1940" y="120" width="120" height="60" as="geometry" />
        </mxCell>
        <mxCell id="Tlh2Osy97JSbk6gR5O0x-112" value="&lt;div&gt;РАСПОЗНАТЬ НОМЕР&lt;br&gt;&lt;/div&gt;&lt;div&gt;КОНЕЦ&lt;/div&gt;" style="rounded=1;whiteSpace=wrap;html=1;" parent="1" vertex="1">
          <mxGeometry x="1940" y="960" width="120" height="60" as="geometry" />
        </mxCell>
        <mxCell id="Tlh2Osy97JSbk6gR5O0x-113" value="&lt;div&gt;ЗАГРУЗИТЬ КАДР&lt;br&gt;&lt;/div&gt;&lt;div&gt;НАЧАЛО&lt;br&gt;&lt;/div&gt;" style="rounded=1;whiteSpace=wrap;html=1;" parent="1" vertex="1">
          <mxGeometry x="2456" y="150" width="120" height="60" as="geometry" />
        </mxCell>
        <mxCell id="Tlh2Osy97JSbk6gR5O0x-114" value="&lt;div&gt;ЗАГРУЗИТЬ КАДР&lt;br&gt;&lt;/div&gt;&lt;div&gt;КОНЕЦ&lt;/div&gt;" style="rounded=1;whiteSpace=wrap;html=1;" parent="1" vertex="1">
          <mxGeometry x="2456" y="690" width="120" height="60" as="geometry" />
        </mxCell>
        <mxCell id="Tlh2Osy97JSbk6gR5O0x-115" value="&lt;div&gt;РАЗБИТЬ НА КАДРЫ&lt;/div&gt;&lt;div&gt;НАЧАЛО&lt;br&gt;&lt;/div&gt;" style="rounded=1;whiteSpace=wrap;html=1;" parent="1" vertex="1">
          <mxGeometry x="2971" y="150" width="120" height="60" as="geometry" />
        </mxCell>
        <mxCell id="Tlh2Osy97JSbk6gR5O0x-116" value="&lt;div&gt;РАЗБИТЬ НА КАДРЫ&lt;/div&gt;&lt;div&gt;КОНЕЦ&lt;/div&gt;" style="rounded=1;whiteSpace=wrap;html=1;" parent="1" vertex="1">
          <mxGeometry x="2971" y="980" width="120" height="60" as="geometry" />
        </mxCell>
        <mxCell id="Tlh2Osy97JSbk6gR5O0x-117" style="edgeStyle=none;curved=1;rounded=0;orthogonalLoop=1;jettySize=auto;html=1;exitX=0.5;exitY=1;exitDx=0;exitDy=0;entryX=0.5;entryY=0;entryDx=0;entryDy=0;fontSize=12;startSize=8;endSize=8;" parent="1" target="Tlh2Osy97JSbk6gR5O0x-153" edge="1">
          <mxGeometry relative="1" as="geometry">
            <mxPoint x="1070" y="1080" as="sourcePoint" />
          </mxGeometry>
        </mxCell>
        <mxCell id="Tlh2Osy97JSbk6gR5O0x-119" style="edgeStyle=orthogonalEdgeStyle;rounded=0;orthogonalLoop=1;jettySize=auto;html=1;exitX=0.5;exitY=1;exitDx=0;exitDy=0;entryX=0.5;entryY=0;entryDx=0;entryDy=0;" parent="1" source="Tlh2Osy97JSbk6gR5O0x-120" edge="1" target="Tlh2Osy97JSbk6gR5O0x-123">
          <mxGeometry relative="1" as="geometry">
            <mxPoint x="1470" y="1357" as="targetPoint" />
            <Array as="points">
              <mxPoint x="1070" y="1318" />
              <mxPoint x="1417" y="1318" />
            </Array>
          </mxGeometry>
        </mxCell>
        <mxCell id="Tlh2Osy97JSbk6gR5O0x-120" value="действие" style="rhombus;whiteSpace=wrap;html=1;" parent="1" vertex="1">
          <mxGeometry x="1010" y="1199" width="120" height="80" as="geometry" />
        </mxCell>
        <mxCell id="Tlh2Osy97JSbk6gR5O0x-121" value="Загрузить" style="text;html=1;align=center;verticalAlign=middle;resizable=0;points=[];autosize=1;strokeColor=none;fillColor=none;" parent="1" vertex="1">
          <mxGeometry x="1187" y="1289" width="80" height="30" as="geometry" />
        </mxCell>
        <mxCell id="Tlh2Osy97JSbk6gR5O0x-122" style="edgeStyle=orthogonalEdgeStyle;rounded=0;orthogonalLoop=1;jettySize=auto;html=1;exitX=0.5;exitY=1;exitDx=0;exitDy=0;" parent="1" source="Tlh2Osy97JSbk6gR5O0x-123" edge="1">
          <mxGeometry relative="1" as="geometry">
            <mxPoint x="1520" y="1440" as="targetPoint" />
            <Array as="points">
              <mxPoint x="1417" y="1440" />
            </Array>
          </mxGeometry>
        </mxCell>
        <mxCell id="Tlh2Osy97JSbk6gR5O0x-123" value="Загрузить видео" style="shape=process;whiteSpace=wrap;html=1;backgroundOutline=1;" parent="1" vertex="1">
          <mxGeometry x="1357" y="1359" width="120" height="60" as="geometry" />
        </mxCell>
        <mxCell id="Tlh2Osy97JSbk6gR5O0x-124" style="edgeStyle=orthogonalEdgeStyle;rounded=0;orthogonalLoop=1;jettySize=auto;html=1;exitX=0.5;exitY=0;exitDx=0;exitDy=0;startArrow=classic;startFill=1;endArrow=oval;endFill=1;" parent="1" source="Tlh2Osy97JSbk6gR5O0x-127" edge="1">
          <mxGeometry relative="1" as="geometry">
            <mxPoint x="1070" y="1319" as="targetPoint" />
            <Array as="points">
              <mxPoint x="1417" y="1459" />
              <mxPoint x="1070" y="1459" />
            </Array>
          </mxGeometry>
        </mxCell>
        <mxCell id="Tlh2Osy97JSbk6gR5O0x-126" style="edgeStyle=orthogonalEdgeStyle;rounded=0;orthogonalLoop=1;jettySize=auto;html=1;exitX=0.5;exitY=1;exitDx=0;exitDy=0;entryX=0.5;entryY=0;entryDx=0;entryDy=0;" parent="1" source="Tlh2Osy97JSbk6gR5O0x-127" target="Tlh2Osy97JSbk6gR5O0x-130" edge="1">
          <mxGeometry relative="1" as="geometry" />
        </mxCell>
        <mxCell id="uRbrbFyWtR2Qhg_Eurwh-30" style="edgeStyle=orthogonalEdgeStyle;rounded=0;orthogonalLoop=1;jettySize=auto;html=1;exitX=1;exitY=0.5;exitDx=0;exitDy=0;" edge="1" parent="1" source="Tlh2Osy97JSbk6gR5O0x-127">
          <mxGeometry relative="1" as="geometry">
            <mxPoint x="1520" y="1518.9302325581396" as="targetPoint" />
          </mxGeometry>
        </mxCell>
        <mxCell id="Tlh2Osy97JSbk6gR5O0x-127" value="Видео загружено?" style="rhombus;whiteSpace=wrap;html=1;" parent="1" vertex="1">
          <mxGeometry x="1357" y="1479" width="120" height="80" as="geometry" />
        </mxCell>
        <mxCell id="Tlh2Osy97JSbk6gR5O0x-128" value="НЕТ" style="text;html=1;align=center;verticalAlign=middle;resizable=0;points=[];autosize=1;strokeColor=none;fillColor=none;" parent="1" vertex="1">
          <mxGeometry x="1460" y="1490" width="50" height="30" as="geometry" />
        </mxCell>
        <mxCell id="uRbrbFyWtR2Qhg_Eurwh-31" style="edgeStyle=orthogonalEdgeStyle;rounded=0;orthogonalLoop=1;jettySize=auto;html=1;exitX=0.5;exitY=1;exitDx=0;exitDy=0;" edge="1" parent="1" source="Tlh2Osy97JSbk6gR5O0x-130">
          <mxGeometry relative="1" as="geometry">
            <mxPoint x="1520" y="1674" as="targetPoint" />
            <Array as="points">
              <mxPoint x="1417" y="1674" />
              <mxPoint x="1520" y="1674" />
            </Array>
          </mxGeometry>
        </mxCell>
        <mxCell id="Tlh2Osy97JSbk6gR5O0x-130" value="Разбить на кадры" style="shape=process;whiteSpace=wrap;html=1;backgroundOutline=1;" parent="1" vertex="1">
          <mxGeometry x="1357" y="1594" width="120" height="60" as="geometry" />
        </mxCell>
        <mxCell id="Tlh2Osy97JSbk6gR5O0x-131" value="ДА" style="text;html=1;align=center;verticalAlign=middle;resizable=0;points=[];autosize=1;strokeColor=none;fillColor=none;" parent="1" vertex="1">
          <mxGeometry x="1417" y="1557" width="40" height="30" as="geometry" />
        </mxCell>
        <mxCell id="Tlh2Osy97JSbk6gR5O0x-132" value="Разбить на кадры" style="text;html=1;align=center;verticalAlign=middle;resizable=0;points=[];autosize=1;strokeColor=none;fillColor=none;" parent="1" vertex="1">
          <mxGeometry x="1157" y="1427" width="120" height="30" as="geometry" />
        </mxCell>
        <mxCell id="Tlh2Osy97JSbk6gR5O0x-133" style="edgeStyle=orthogonalEdgeStyle;rounded=0;orthogonalLoop=1;jettySize=auto;html=1;exitX=1;exitY=0.5;exitDx=0;exitDy=0;" parent="1" source="Tlh2Osy97JSbk6gR5O0x-135" edge="1">
          <mxGeometry relative="1" as="geometry">
            <mxPoint x="1520" y="1699" as="targetPoint" />
            <Array as="points">
              <mxPoint x="1417" y="1699" />
            </Array>
          </mxGeometry>
        </mxCell>
        <mxCell id="Tlh2Osy97JSbk6gR5O0x-134" style="edgeStyle=orthogonalEdgeStyle;rounded=0;orthogonalLoop=1;jettySize=auto;html=1;exitX=0.5;exitY=1;exitDx=0;exitDy=0;entryX=0.5;entryY=0;entryDx=0;entryDy=0;" parent="1" source="Tlh2Osy97JSbk6gR5O0x-135" target="Tlh2Osy97JSbk6gR5O0x-140" edge="1">
          <mxGeometry relative="1" as="geometry" />
        </mxCell>
        <mxCell id="Tlh2Osy97JSbk6gR5O0x-135" value="Видео разбито?" style="rhombus;whiteSpace=wrap;html=1;" parent="1" vertex="1">
          <mxGeometry x="1157" y="1659" width="120" height="80" as="geometry" />
        </mxCell>
        <mxCell id="Tlh2Osy97JSbk6gR5O0x-136" style="edgeStyle=orthogonalEdgeStyle;rounded=0;orthogonalLoop=1;jettySize=auto;html=1;exitX=0.5;exitY=0;exitDx=0;exitDy=0;startArrow=classic;startFill=1;endArrow=oval;endFill=1;" parent="1" source="Tlh2Osy97JSbk6gR5O0x-135" edge="1">
          <mxGeometry relative="1" as="geometry">
            <mxPoint x="1070" y="1457" as="targetPoint" />
            <mxPoint x="1470" y="1617" as="sourcePoint" />
            <Array as="points">
              <mxPoint x="1217" y="1597" />
              <mxPoint x="1070" y="1597" />
            </Array>
          </mxGeometry>
        </mxCell>
        <mxCell id="Tlh2Osy97JSbk6gR5O0x-137" value="Выбрать кадр" style="text;html=1;align=center;verticalAlign=middle;resizable=0;points=[];autosize=1;strokeColor=none;fillColor=none;" parent="1" vertex="1">
          <mxGeometry x="1090" y="1564" width="100" height="30" as="geometry" />
        </mxCell>
        <mxCell id="Tlh2Osy97JSbk6gR5O0x-138" value="НЕТ" style="text;html=1;align=center;verticalAlign=middle;resizable=0;points=[];autosize=1;strokeColor=none;fillColor=none;" parent="1" vertex="1">
          <mxGeometry x="1262" y="1667" width="50" height="30" as="geometry" />
        </mxCell>
        <mxCell id="uRbrbFyWtR2Qhg_Eurwh-32" style="edgeStyle=orthogonalEdgeStyle;rounded=0;orthogonalLoop=1;jettySize=auto;html=1;exitX=0.5;exitY=1;exitDx=0;exitDy=0;" edge="1" parent="1" source="Tlh2Osy97JSbk6gR5O0x-140">
          <mxGeometry relative="1" as="geometry">
            <mxPoint x="1217" y="1870" as="targetPoint" />
          </mxGeometry>
        </mxCell>
        <mxCell id="Tlh2Osy97JSbk6gR5O0x-140" value="Загрузить кадр" style="shape=process;whiteSpace=wrap;html=1;backgroundOutline=1;" parent="1" vertex="1">
          <mxGeometry x="1157" y="1769" width="120" height="60" as="geometry" />
        </mxCell>
        <mxCell id="Tlh2Osy97JSbk6gR5O0x-141" value="ДА" style="text;html=1;align=center;verticalAlign=middle;resizable=0;points=[];autosize=1;strokeColor=none;fillColor=none;" parent="1" vertex="1">
          <mxGeometry x="1222" y="1739" width="40" height="30" as="geometry" />
        </mxCell>
        <mxCell id="Tlh2Osy97JSbk6gR5O0x-142" style="edgeStyle=orthogonalEdgeStyle;rounded=0;orthogonalLoop=1;jettySize=auto;html=1;exitX=1;exitY=0.5;exitDx=0;exitDy=0;" parent="1" source="Tlh2Osy97JSbk6gR5O0x-144" edge="1">
          <mxGeometry relative="1" as="geometry">
            <mxPoint x="1070" y="1180" as="targetPoint" />
            <Array as="points">
              <mxPoint x="1520" y="1869" />
              <mxPoint x="1520" y="1180" />
            </Array>
          </mxGeometry>
        </mxCell>
        <mxCell id="Tlh2Osy97JSbk6gR5O0x-143" style="edgeStyle=orthogonalEdgeStyle;rounded=0;orthogonalLoop=1;jettySize=auto;html=1;exitX=0.5;exitY=1;exitDx=0;exitDy=0;entryX=0.5;entryY=0;entryDx=0;entryDy=0;" parent="1" source="Tlh2Osy97JSbk6gR5O0x-144" target="Tlh2Osy97JSbk6gR5O0x-149" edge="1">
          <mxGeometry relative="1" as="geometry" />
        </mxCell>
        <mxCell id="Tlh2Osy97JSbk6gR5O0x-144" value="Кадр загружен?" style="rhombus;whiteSpace=wrap;html=1;" parent="1" vertex="1">
          <mxGeometry x="1010" y="1829" width="120" height="80" as="geometry" />
        </mxCell>
        <mxCell id="Tlh2Osy97JSbk6gR5O0x-145" style="edgeStyle=orthogonalEdgeStyle;rounded=0;orthogonalLoop=1;jettySize=auto;html=1;exitX=0.5;exitY=0;exitDx=0;exitDy=0;startArrow=classic;startFill=1;endArrow=oval;endFill=1;" parent="1" source="Tlh2Osy97JSbk6gR5O0x-144" edge="1">
          <mxGeometry relative="1" as="geometry">
            <mxPoint x="1070" y="1598" as="targetPoint" />
            <mxPoint x="1270" y="1800" as="sourcePoint" />
            <Array as="points">
              <mxPoint x="1070" y="1779" />
              <mxPoint x="1070" y="1779" />
            </Array>
          </mxGeometry>
        </mxCell>
        <mxCell id="Tlh2Osy97JSbk6gR5O0x-146" value="Распознать" style="text;html=1;align=center;verticalAlign=middle;resizable=0;points=[];autosize=1;strokeColor=none;fillColor=none;" parent="1" vertex="1">
          <mxGeometry x="1060" y="1667" width="90" height="30" as="geometry" />
        </mxCell>
        <mxCell id="Tlh2Osy97JSbk6gR5O0x-147" value="НЕТ" style="text;html=1;align=center;verticalAlign=middle;resizable=0;points=[];autosize=1;strokeColor=none;fillColor=none;" parent="1" vertex="1">
          <mxGeometry x="1115" y="1835" width="50" height="30" as="geometry" />
        </mxCell>
        <mxCell id="Tlh2Osy97JSbk6gR5O0x-148" style="edgeStyle=orthogonalEdgeStyle;rounded=0;orthogonalLoop=1;jettySize=auto;html=1;exitX=0.5;exitY=1;exitDx=0;exitDy=0;entryX=0.5;entryY=0;entryDx=0;entryDy=0;" parent="1" source="Tlh2Osy97JSbk6gR5O0x-149" edge="1">
          <mxGeometry relative="1" as="geometry">
            <mxPoint x="1070" y="2049" as="targetPoint" />
          </mxGeometry>
        </mxCell>
        <mxCell id="Tlh2Osy97JSbk6gR5O0x-149" value="Распознать номер" style="shape=process;whiteSpace=wrap;html=1;backgroundOutline=1;" parent="1" vertex="1">
          <mxGeometry x="1010" y="1949" width="120" height="60" as="geometry" />
        </mxCell>
        <mxCell id="Tlh2Osy97JSbk6gR5O0x-150" value="ДА" style="text;html=1;align=center;verticalAlign=middle;resizable=0;points=[];autosize=1;strokeColor=none;fillColor=none;" parent="1" vertex="1">
          <mxGeometry x="1070" y="1907" width="40" height="30" as="geometry" />
        </mxCell>
        <mxCell id="Tlh2Osy97JSbk6gR5O0x-152" style="edgeStyle=none;curved=1;rounded=0;orthogonalLoop=1;jettySize=auto;html=1;exitX=0.5;exitY=1;exitDx=0;exitDy=0;entryX=0.5;entryY=0;entryDx=0;entryDy=0;fontSize=12;startSize=8;endSize=8;" parent="1" source="Tlh2Osy97JSbk6gR5O0x-153" target="Tlh2Osy97JSbk6gR5O0x-120" edge="1">
          <mxGeometry relative="1" as="geometry" />
        </mxCell>
        <mxCell id="Tlh2Osy97JSbk6gR5O0x-153" value="Инициализация" style="rounded=0;whiteSpace=wrap;html=1;" parent="1" vertex="1">
          <mxGeometry x="1010" y="1110" width="120" height="60" as="geometry" />
        </mxCell>
        <mxCell id="Tlh2Osy97JSbk6gR5O0x-154" value="&lt;span style=&quot;background-color: initial;&quot;&gt;НАЧАЛО&lt;/span&gt;" style="rounded=1;whiteSpace=wrap;html=1;" parent="1" vertex="1">
          <mxGeometry x="1010" y="1020" width="120" height="60" as="geometry" />
        </mxCell>
        <mxCell id="Tlh2Osy97JSbk6gR5O0x-155" value="&lt;span style=&quot;background-color: initial;&quot;&gt;КОНЕЦ&lt;/span&gt;" style="rounded=1;whiteSpace=wrap;html=1;" parent="1" vertex="1">
          <mxGeometry x="1010" y="2050" width="120" height="60" as="geometry" />
        </mxCell>
        <mxCell id="uRbrbFyWtR2Qhg_Eurwh-1" style="edgeStyle=none;curved=1;rounded=0;orthogonalLoop=1;jettySize=auto;html=1;exitX=0.5;exitY=1;exitDx=0;exitDy=0;entryX=0.5;entryY=0;entryDx=0;entryDy=0;fontSize=12;startSize=8;endSize=8;" edge="1" parent="1" source="uRbrbFyWtR2Qhg_Eurwh-28" target="uRbrbFyWtR2Qhg_Eurwh-3">
          <mxGeometry relative="1" as="geometry">
            <mxPoint x="190" y="1039" as="sourcePoint" />
          </mxGeometry>
        </mxCell>
        <mxCell id="uRbrbFyWtR2Qhg_Eurwh-2" style="edgeStyle=orthogonalEdgeStyle;rounded=0;orthogonalLoop=1;jettySize=auto;html=1;exitX=0.5;exitY=1;exitDx=0;exitDy=0;entryX=0.5;entryY=0;entryDx=0;entryDy=0;" edge="1" parent="1" source="uRbrbFyWtR2Qhg_Eurwh-3" target="uRbrbFyWtR2Qhg_Eurwh-5">
          <mxGeometry relative="1" as="geometry" />
        </mxCell>
        <mxCell id="uRbrbFyWtR2Qhg_Eurwh-3" value="Получить номер" style="rounded=0;whiteSpace=wrap;html=1;" vertex="1" parent="1">
          <mxGeometry x="90" y="1079" width="160" height="60" as="geometry" />
        </mxCell>
        <mxCell id="uRbrbFyWtR2Qhg_Eurwh-4" style="edgeStyle=orthogonalEdgeStyle;rounded=0;orthogonalLoop=1;jettySize=auto;html=1;exitX=0.5;exitY=1;exitDx=0;exitDy=0;" edge="1" parent="1" source="uRbrbFyWtR2Qhg_Eurwh-5" target="uRbrbFyWtR2Qhg_Eurwh-16">
          <mxGeometry relative="1" as="geometry" />
        </mxCell>
        <mxCell id="uRbrbFyWtR2Qhg_Eurwh-5" value="Открыть сайт" style="rounded=0;whiteSpace=wrap;html=1;" vertex="1" parent="1">
          <mxGeometry x="90" y="1179" width="160" height="60" as="geometry" />
        </mxCell>
        <mxCell id="uRbrbFyWtR2Qhg_Eurwh-6" style="edgeStyle=none;curved=1;rounded=0;orthogonalLoop=1;jettySize=auto;html=1;exitX=0.5;exitY=1;exitDx=0;exitDy=0;entryX=0.5;entryY=0;entryDx=0;entryDy=0;fontSize=12;startSize=8;endSize=8;" edge="1" parent="1" source="uRbrbFyWtR2Qhg_Eurwh-7" target="uRbrbFyWtR2Qhg_Eurwh-9">
          <mxGeometry relative="1" as="geometry" />
        </mxCell>
        <mxCell id="uRbrbFyWtR2Qhg_Eurwh-7" value="Найти поле ввода" style="rounded=0;whiteSpace=wrap;html=1;" vertex="1" parent="1">
          <mxGeometry x="230" y="1359" width="160" height="60" as="geometry" />
        </mxCell>
        <mxCell id="uRbrbFyWtR2Qhg_Eurwh-8" style="edgeStyle=orthogonalEdgeStyle;rounded=0;orthogonalLoop=1;jettySize=auto;html=1;exitX=0.5;exitY=1;exitDx=0;exitDy=0;entryX=0.5;entryY=0;entryDx=0;entryDy=0;" edge="1" parent="1" source="uRbrbFyWtR2Qhg_Eurwh-9" target="uRbrbFyWtR2Qhg_Eurwh-22">
          <mxGeometry relative="1" as="geometry" />
        </mxCell>
        <mxCell id="uRbrbFyWtR2Qhg_Eurwh-9" value="Отправить запрос" style="rounded=0;whiteSpace=wrap;html=1;" vertex="1" parent="1">
          <mxGeometry x="230" y="1449" width="160" height="60" as="geometry" />
        </mxCell>
        <mxCell id="uRbrbFyWtR2Qhg_Eurwh-10" style="edgeStyle=none;curved=1;rounded=0;orthogonalLoop=1;jettySize=auto;html=1;exitX=0.5;exitY=1;exitDx=0;exitDy=0;entryX=0.5;entryY=0;entryDx=0;entryDy=0;fontSize=12;startSize=8;endSize=8;" edge="1" parent="1" source="uRbrbFyWtR2Qhg_Eurwh-11" target="uRbrbFyWtR2Qhg_Eurwh-13">
          <mxGeometry relative="1" as="geometry" />
        </mxCell>
        <mxCell id="uRbrbFyWtR2Qhg_Eurwh-11" value="Найти данные о модели&amp;nbsp;" style="rounded=0;whiteSpace=wrap;html=1;" vertex="1" parent="1">
          <mxGeometry x="350" y="1639" width="160" height="60" as="geometry" />
        </mxCell>
        <mxCell id="uRbrbFyWtR2Qhg_Eurwh-12" style="edgeStyle=orthogonalEdgeStyle;rounded=0;orthogonalLoop=1;jettySize=auto;html=1;exitX=0.5;exitY=1;exitDx=0;exitDy=0;entryX=0.5;entryY=0;entryDx=0;entryDy=0;" edge="1" parent="1" source="uRbrbFyWtR2Qhg_Eurwh-13" target="uRbrbFyWtR2Qhg_Eurwh-27">
          <mxGeometry relative="1" as="geometry" />
        </mxCell>
        <mxCell id="uRbrbFyWtR2Qhg_Eurwh-13" value="Получить данные о модели" style="rounded=0;whiteSpace=wrap;html=1;" vertex="1" parent="1">
          <mxGeometry x="350" y="1729" width="160" height="60" as="geometry" />
        </mxCell>
        <mxCell id="uRbrbFyWtR2Qhg_Eurwh-14" style="edgeStyle=orthogonalEdgeStyle;rounded=0;orthogonalLoop=1;jettySize=auto;html=1;exitX=0.5;exitY=1;exitDx=0;exitDy=0;entryX=0.5;entryY=0;entryDx=0;entryDy=0;" edge="1" parent="1" source="uRbrbFyWtR2Qhg_Eurwh-16" target="uRbrbFyWtR2Qhg_Eurwh-19">
          <mxGeometry relative="1" as="geometry" />
        </mxCell>
        <mxCell id="uRbrbFyWtR2Qhg_Eurwh-15" style="edgeStyle=orthogonalEdgeStyle;rounded=0;orthogonalLoop=1;jettySize=auto;html=1;exitX=1;exitY=0.5;exitDx=0;exitDy=0;entryX=0.5;entryY=0;entryDx=0;entryDy=0;" edge="1" parent="1" source="uRbrbFyWtR2Qhg_Eurwh-16" target="uRbrbFyWtR2Qhg_Eurwh-7">
          <mxGeometry relative="1" as="geometry" />
        </mxCell>
        <mxCell id="uRbrbFyWtR2Qhg_Eurwh-16" value="Сайт открыт?" style="rhombus;whiteSpace=wrap;html=1;" vertex="1" parent="1">
          <mxGeometry x="90" y="1279" width="160" height="80" as="geometry" />
        </mxCell>
        <mxCell id="uRbrbFyWtR2Qhg_Eurwh-17" value="нет" style="text;html=1;align=center;verticalAlign=middle;resizable=0;points=[];autosize=1;strokeColor=none;fillColor=none;" vertex="1" parent="1">
          <mxGeometry x="130" y="1359" width="40" height="30" as="geometry" />
        </mxCell>
        <mxCell id="uRbrbFyWtR2Qhg_Eurwh-18" style="edgeStyle=orthogonalEdgeStyle;rounded=0;orthogonalLoop=1;jettySize=auto;html=1;exitX=0.5;exitY=1;exitDx=0;exitDy=0;entryX=0.5;entryY=0;entryDx=0;entryDy=0;" edge="1" parent="1" source="uRbrbFyWtR2Qhg_Eurwh-19" target="uRbrbFyWtR2Qhg_Eurwh-29">
          <mxGeometry relative="1" as="geometry">
            <mxPoint x="190" y="1589" as="targetPoint" />
          </mxGeometry>
        </mxCell>
        <mxCell id="uRbrbFyWtR2Qhg_Eurwh-19" value="Сообщение об ошибке" style="rounded=0;whiteSpace=wrap;html=1;" vertex="1" parent="1">
          <mxGeometry x="90" y="1820" width="160" height="60" as="geometry" />
        </mxCell>
        <mxCell id="uRbrbFyWtR2Qhg_Eurwh-20" style="edgeStyle=orthogonalEdgeStyle;rounded=0;orthogonalLoop=1;jettySize=auto;html=1;exitX=0.5;exitY=1;exitDx=0;exitDy=0;" edge="1" parent="1" source="uRbrbFyWtR2Qhg_Eurwh-22">
          <mxGeometry relative="1" as="geometry">
            <mxPoint x="170" y="1710" as="targetPoint" />
            <Array as="points">
              <mxPoint x="310" y="1710" />
            </Array>
          </mxGeometry>
        </mxCell>
        <mxCell id="uRbrbFyWtR2Qhg_Eurwh-21" style="edgeStyle=orthogonalEdgeStyle;rounded=0;orthogonalLoop=1;jettySize=auto;html=1;exitX=1;exitY=0.5;exitDx=0;exitDy=0;entryX=0.5;entryY=0;entryDx=0;entryDy=0;" edge="1" parent="1" source="uRbrbFyWtR2Qhg_Eurwh-22" target="uRbrbFyWtR2Qhg_Eurwh-11">
          <mxGeometry relative="1" as="geometry" />
        </mxCell>
        <mxCell id="uRbrbFyWtR2Qhg_Eurwh-22" value="Запрос&amp;nbsp;&lt;div&gt;успешный?&lt;/div&gt;" style="rhombus;whiteSpace=wrap;html=1;" vertex="1" parent="1">
          <mxGeometry x="230" y="1539" width="160" height="80" as="geometry" />
        </mxCell>
        <mxCell id="uRbrbFyWtR2Qhg_Eurwh-23" value="да" style="text;html=1;align=center;verticalAlign=middle;resizable=0;points=[];autosize=1;strokeColor=none;fillColor=none;" vertex="1" parent="1">
          <mxGeometry x="240" y="1289" width="40" height="30" as="geometry" />
        </mxCell>
        <mxCell id="uRbrbFyWtR2Qhg_Eurwh-24" value="нет" style="text;html=1;align=center;verticalAlign=middle;resizable=0;points=[];autosize=1;strokeColor=none;fillColor=none;" vertex="1" parent="1">
          <mxGeometry x="270" y="1619" width="40" height="30" as="geometry" />
        </mxCell>
        <mxCell id="uRbrbFyWtR2Qhg_Eurwh-25" value="да" style="text;html=1;align=center;verticalAlign=middle;resizable=0;points=[];autosize=1;strokeColor=none;fillColor=none;" vertex="1" parent="1">
          <mxGeometry x="380" y="1579" width="40" height="30" as="geometry" />
        </mxCell>
        <mxCell id="uRbrbFyWtR2Qhg_Eurwh-26" style="edgeStyle=orthogonalEdgeStyle;rounded=0;orthogonalLoop=1;jettySize=auto;html=1;exitX=0.5;exitY=1;exitDx=0;exitDy=0;" edge="1" parent="1" source="uRbrbFyWtR2Qhg_Eurwh-27">
          <mxGeometry relative="1" as="geometry">
            <mxPoint x="170" y="1920" as="targetPoint" />
            <Array as="points">
              <mxPoint x="430" y="1920" />
            </Array>
          </mxGeometry>
        </mxCell>
        <mxCell id="uRbrbFyWtR2Qhg_Eurwh-27" value="Вернуть данные о модели" style="rounded=0;whiteSpace=wrap;html=1;" vertex="1" parent="1">
          <mxGeometry x="350" y="1819" width="160" height="60" as="geometry" />
        </mxCell>
        <mxCell id="uRbrbFyWtR2Qhg_Eurwh-28" value="НАЧАЛО" style="rounded=1;whiteSpace=wrap;html=1;" vertex="1" parent="1">
          <mxGeometry x="90" y="979" width="160" height="60" as="geometry" />
        </mxCell>
        <mxCell id="uRbrbFyWtR2Qhg_Eurwh-29" value="КОНЕЦ" style="rounded=1;whiteSpace=wrap;html=1;" vertex="1" parent="1">
          <mxGeometry x="90" y="1949" width="160" height="60" as="geometry" />
        </mxCell>
      </root>
    </mxGraphModel>
  </diagram>
</mxfile>
